<svg width="703" height="1024" viewBox="0 0 703 1024" fill="none" xmlns="http://www.w3.org/2000/svg">
<g clip-path="url(#clip0)">
<rect width="703" height="1024" rx="20" fill="#1D1D1D"/>
<rect width="1301" height="1024" fill="#1D1D1D"/>
<path d="M0 0H703V925C703 979.676 658.676 1024 604 1024H0V0Z" fill="#01A34B"/>
<path d="M149.211 166.021C149.211 168.307 148.385 170.1 146.732 171.4C145.08 172.701 142.801 173.352 139.895 173.352C136.988 173.352 134.609 172.9 132.758 171.998V168.025C133.93 168.576 135.172 169.01 136.484 169.326C137.809 169.643 139.039 169.801 140.176 169.801C141.84 169.801 143.064 169.484 143.85 168.852C144.646 168.219 145.045 167.369 145.045 166.303C145.045 165.342 144.682 164.527 143.955 163.859C143.229 163.191 141.729 162.4 139.455 161.486C137.111 160.537 135.459 159.453 134.498 158.234C133.537 157.016 133.057 155.551 133.057 153.84C133.057 151.695 133.818 150.008 135.342 148.777C136.865 147.547 138.91 146.932 141.477 146.932C143.938 146.932 146.387 147.471 148.824 148.549L147.488 151.977C145.203 151.016 143.164 150.535 141.371 150.535C140.012 150.535 138.98 150.834 138.277 151.432C137.574 152.018 137.223 152.797 137.223 153.77C137.223 154.438 137.363 155.012 137.645 155.492C137.926 155.961 138.389 156.406 139.033 156.828C139.678 157.25 140.838 157.807 142.514 158.498C144.4 159.283 145.783 160.016 146.662 160.695C147.541 161.375 148.186 162.143 148.596 162.998C149.006 163.854 149.211 164.861 149.211 166.021ZM163.603 173H159.401V150.904H151.843V147.301H171.161V150.904H163.603V173ZM191.6 173L189.033 165.863H179.207L176.693 173H172.264L181.879 147.195H186.449L196.064 173H191.6ZM187.926 162.242L185.518 155.246C185.342 154.777 185.096 154.039 184.779 153.031C184.475 152.023 184.264 151.285 184.146 150.816C183.83 152.258 183.367 153.834 182.758 155.545L180.437 162.242H187.926ZM199.997 173V147.301H204.198V169.396H215.079V173H199.997ZM239.666 173H234.797L226.728 161.363L224.25 163.385V173H220.049V147.301H224.25V159.57C225.398 158.164 226.541 156.811 227.678 155.51L234.621 147.301H239.402C234.914 152.574 231.697 156.33 229.752 158.568L239.666 173Z" fill="#1D1D1D"/>
<path d="M149.867 240.289C147.133 240.289 145.016 241.32 143.516 243.383C142.016 245.43 141.266 248.289 141.266 251.961C141.266 259.602 144.133 263.422 149.867 263.422C152.273 263.422 155.188 262.82 158.609 261.617V267.711C155.797 268.883 152.656 269.469 149.188 269.469C144.203 269.469 140.391 267.961 137.75 264.945C135.109 261.914 133.789 257.57 133.789 251.914C133.789 248.352 134.438 245.234 135.734 242.562C137.031 239.875 138.891 237.82 141.312 236.398C143.75 234.961 146.602 234.242 149.867 234.242C153.195 234.242 156.539 235.047 159.898 236.656L157.555 242.562C156.273 241.953 154.984 241.422 153.688 240.969C152.391 240.516 151.117 240.289 149.867 240.289ZM197.743 251.82C197.743 257.492 196.337 261.852 193.525 264.898C190.712 267.945 186.681 269.469 181.431 269.469C176.181 269.469 172.15 267.945 169.337 264.898C166.525 261.852 165.118 257.477 165.118 251.773C165.118 246.07 166.525 241.719 169.337 238.719C172.165 235.703 176.212 234.195 181.478 234.195C186.743 234.195 190.767 235.711 193.548 238.742C196.345 241.773 197.743 246.133 197.743 251.82ZM172.736 251.82C172.736 255.648 173.462 258.531 174.915 260.469C176.368 262.406 178.54 263.375 181.431 263.375C187.228 263.375 190.126 259.523 190.126 251.82C190.126 244.102 187.243 240.242 181.478 240.242C178.587 240.242 176.407 241.219 174.939 243.172C173.47 245.109 172.736 247.992 172.736 251.82ZM220.073 269L211.823 242.117H211.612C211.909 247.586 212.057 251.234 212.057 253.062V269H205.565V234.734H215.456L223.565 260.938H223.706L232.307 234.734H242.198V269H235.424V252.781C235.424 252.016 235.432 251.133 235.448 250.133C235.479 249.133 235.588 246.477 235.776 242.164H235.565L226.729 269H220.073ZM258.832 250.859H261.223C263.457 250.859 265.129 250.422 266.238 249.547C267.348 248.656 267.902 247.367 267.902 245.68C267.902 243.977 267.433 242.719 266.496 241.906C265.574 241.094 264.121 240.688 262.137 240.688H258.832V250.859ZM275.238 245.422C275.238 249.109 274.082 251.93 271.769 253.883C269.473 255.836 266.199 256.812 261.949 256.812H258.832V269H251.566V234.734H262.512C266.668 234.734 269.824 235.633 271.98 237.43C274.152 239.211 275.238 241.875 275.238 245.422ZM282.427 269V234.734H289.693V263H303.591V269H282.427ZM330.022 269H310.288V234.734H330.022V240.688H317.553V248.211H329.155V254.164H317.553V263H330.022V269ZM351.133 269H343.867V240.781H334.562V234.734H360.437V240.781H351.133V269ZM386.165 269H366.431V234.734H386.165V240.688H373.696V248.211H385.298V254.164H373.696V263H386.165V269ZM420.464 269H413.199V240.781H403.894V234.734H429.769V240.781H420.464V269ZM456.739 269L454.255 260.844H441.763L439.278 269H431.45L443.544 234.594H452.427L464.567 269H456.739ZM452.52 254.75C450.223 247.359 448.927 243.18 448.63 242.211C448.348 241.242 448.145 240.477 448.02 239.914C447.505 241.914 446.028 246.859 443.591 254.75H452.52ZM489.85 259.484C489.85 262.578 488.733 265.016 486.498 266.797C484.279 268.578 481.186 269.469 477.217 269.469C473.561 269.469 470.326 268.781 467.514 267.406V260.656C469.826 261.688 471.779 262.414 473.373 262.836C474.983 263.258 476.451 263.469 477.779 263.469C479.373 263.469 480.592 263.164 481.436 262.555C482.295 261.945 482.725 261.039 482.725 259.836C482.725 259.164 482.537 258.57 482.162 258.055C481.787 257.523 481.233 257.016 480.498 256.531C479.779 256.047 478.303 255.273 476.068 254.211C473.975 253.227 472.404 252.281 471.358 251.375C470.311 250.469 469.475 249.414 468.85 248.211C468.225 247.008 467.912 245.602 467.912 243.992C467.912 240.961 468.936 238.578 470.983 236.844C473.045 235.109 475.889 234.242 479.514 234.242C481.295 234.242 482.99 234.453 484.6 234.875C486.225 235.297 487.92 235.891 489.686 236.656L487.342 242.305C485.514 241.555 483.998 241.031 482.795 240.734C481.608 240.438 480.436 240.289 479.279 240.289C477.904 240.289 476.85 240.609 476.115 241.25C475.381 241.891 475.014 242.727 475.014 243.758C475.014 244.398 475.162 244.961 475.459 245.445C475.756 245.914 476.225 246.375 476.865 246.828C477.522 247.266 479.061 248.062 481.483 249.219C484.686 250.75 486.881 252.289 488.068 253.836C489.256 255.367 489.85 257.25 489.85 259.484ZM524.343 269H516.093L507.117 254.562L504.046 256.766V269H496.781V234.734H504.046V250.414L506.906 246.383L516.187 234.734H524.249L512.296 249.898L524.343 269ZM549.602 259.484C549.602 262.578 548.485 265.016 546.251 266.797C544.032 268.578 540.938 269.469 536.969 269.469C533.313 269.469 530.079 268.781 527.266 267.406V260.656C529.579 261.688 531.532 262.414 533.126 262.836C534.735 263.258 536.204 263.469 537.532 263.469C539.126 263.469 540.344 263.164 541.188 262.555C542.047 261.945 542.477 261.039 542.477 259.836C542.477 259.164 542.29 258.57 541.915 258.055C541.54 257.523 540.985 257.016 540.251 256.531C539.532 256.047 538.055 255.273 535.821 254.211C533.727 253.227 532.157 252.281 531.11 251.375C530.063 250.469 529.227 249.414 528.602 248.211C527.977 247.008 527.665 245.602 527.665 243.992C527.665 240.961 528.688 238.578 530.735 236.844C532.797 235.109 535.641 234.242 539.266 234.242C541.047 234.242 542.743 234.453 544.352 234.875C545.977 235.297 547.672 235.891 549.438 236.656L547.094 242.305C545.266 241.555 543.751 241.031 542.547 240.734C541.36 240.438 540.188 240.289 539.032 240.289C537.657 240.289 536.602 240.609 535.868 241.25C535.133 241.891 534.766 242.727 534.766 243.758C534.766 244.398 534.915 244.961 535.212 245.445C535.508 245.914 535.977 246.375 536.618 246.828C537.274 247.266 538.813 248.062 541.235 249.219C544.438 250.75 546.633 252.289 547.821 253.836C549.008 255.367 549.602 257.25 549.602 259.484ZM554.963 265.648C554.963 264.336 555.314 263.344 556.017 262.672C556.721 262 557.744 261.664 559.088 261.664C560.385 261.664 561.385 262.008 562.088 262.695C562.807 263.383 563.166 264.367 563.166 265.648C563.166 266.883 562.807 267.859 562.088 268.578C561.369 269.281 560.369 269.633 559.088 269.633C557.775 269.633 556.76 269.289 556.041 268.602C555.322 267.898 554.963 266.914 554.963 265.648ZM135.312 364.734H145.977C150.836 364.734 154.359 365.43 156.547 366.82C158.75 368.195 159.852 370.391 159.852 373.406C159.852 375.453 159.367 377.133 158.398 378.445C157.445 379.758 156.172 380.547 154.578 380.812V381.047C156.75 381.531 158.312 382.438 159.266 383.766C160.234 385.094 160.719 386.859 160.719 389.062C160.719 392.188 159.586 394.625 157.32 396.375C155.07 398.125 152.008 399 148.133 399H135.312V364.734ZM142.578 378.305H146.797C148.766 378.305 150.188 378 151.062 377.391C151.953 376.781 152.398 375.773 152.398 374.367C152.398 373.055 151.914 372.117 150.945 371.555C149.992 370.977 148.477 370.688 146.398 370.688H142.578V378.305ZM142.578 384.07V393H147.312C149.312 393 150.789 392.617 151.742 391.852C152.695 391.086 153.172 389.914 153.172 388.336C153.172 385.492 151.141 384.07 147.078 384.07H142.578ZM196.173 364.734V386.906C196.173 389.438 195.603 391.656 194.462 393.562C193.337 395.469 191.704 396.93 189.564 397.945C187.423 398.961 184.892 399.469 181.97 399.469C177.564 399.469 174.142 398.344 171.704 396.094C169.267 393.828 168.048 390.734 168.048 386.812V364.734H175.29V385.711C175.29 388.352 175.822 390.289 176.884 391.523C177.947 392.758 179.704 393.375 182.158 393.375C184.533 393.375 186.251 392.758 187.314 391.523C188.392 390.273 188.931 388.32 188.931 385.664V364.734H196.173ZM215.948 378.844L223.096 364.734H230.924L219.557 385.664V399H212.338V385.898L200.971 364.734H208.846L215.948 378.844ZM269.372 389.484C269.372 392.578 268.255 395.016 266.021 396.797C263.802 398.578 260.708 399.469 256.739 399.469C253.083 399.469 249.849 398.781 247.036 397.406V390.656C249.349 391.688 251.302 392.414 252.896 392.836C254.505 393.258 255.974 393.469 257.302 393.469C258.896 393.469 260.114 393.164 260.958 392.555C261.817 391.945 262.247 391.039 262.247 389.836C262.247 389.164 262.06 388.57 261.685 388.055C261.31 387.523 260.755 387.016 260.021 386.531C259.302 386.047 257.825 385.273 255.591 384.211C253.497 383.227 251.927 382.281 250.88 381.375C249.833 380.469 248.997 379.414 248.372 378.211C247.747 377.008 247.435 375.602 247.435 373.992C247.435 370.961 248.458 368.578 250.505 366.844C252.567 365.109 255.411 364.242 259.036 364.242C260.817 364.242 262.513 364.453 264.122 364.875C265.747 365.297 267.442 365.891 269.208 366.656L266.864 372.305C265.036 371.555 263.521 371.031 262.317 370.734C261.13 370.438 259.958 370.289 258.802 370.289C257.427 370.289 256.372 370.609 255.638 371.25C254.903 371.891 254.536 372.727 254.536 373.758C254.536 374.398 254.685 374.961 254.982 375.445C255.278 375.914 255.747 376.375 256.388 376.828C257.044 377.266 258.583 378.062 261.005 379.219C264.208 380.75 266.403 382.289 267.591 383.836C268.778 385.367 269.372 387.25 269.372 389.484ZM289.522 399H282.256V370.781H272.952V364.734H298.827V370.781H289.522V399ZM335.922 381.82C335.922 387.492 334.515 391.852 331.703 394.898C328.89 397.945 324.859 399.469 319.609 399.469C314.359 399.469 310.328 397.945 307.515 394.898C304.703 391.852 303.297 387.477 303.297 381.773C303.297 376.07 304.703 371.719 307.515 368.719C310.343 365.703 314.39 364.195 319.656 364.195C324.922 364.195 328.945 365.711 331.726 368.742C334.523 371.773 335.922 376.133 335.922 381.82ZM310.914 381.82C310.914 385.648 311.64 388.531 313.093 390.469C314.547 392.406 316.718 393.375 319.609 393.375C325.406 393.375 328.304 389.523 328.304 381.82C328.304 374.102 325.422 370.242 319.656 370.242C316.765 370.242 314.586 371.219 313.117 373.172C311.648 375.109 310.914 377.992 310.914 381.82ZM358.298 370.289C355.563 370.289 353.446 371.32 351.946 373.383C350.446 375.43 349.696 378.289 349.696 381.961C349.696 389.602 352.563 393.422 358.298 393.422C360.704 393.422 363.618 392.82 367.04 391.617V397.711C364.227 398.883 361.087 399.469 357.618 399.469C352.634 399.469 348.821 397.961 346.181 394.945C343.54 391.914 342.22 387.57 342.22 381.914C342.22 378.352 342.868 375.234 344.165 372.562C345.462 369.875 347.321 367.82 349.743 366.398C352.181 364.961 355.032 364.242 358.298 364.242C361.626 364.242 364.97 365.047 368.329 366.656L365.985 372.562C364.704 371.953 363.415 371.422 362.118 370.969C360.821 370.516 359.548 370.289 358.298 370.289ZM402.635 399H394.385L385.408 384.562L382.338 386.766V399H375.072V364.734H382.338V380.414L385.197 376.383L394.479 364.734H402.541L390.588 379.898L402.635 399ZM427.894 389.484C427.894 392.578 426.777 395.016 424.543 396.797C422.324 398.578 419.23 399.469 415.261 399.469C411.605 399.469 408.371 398.781 405.558 397.406V390.656C407.871 391.688 409.824 392.414 411.418 392.836C413.027 393.258 414.496 393.469 415.824 393.469C417.418 393.469 418.636 393.164 419.48 392.555C420.339 391.945 420.769 391.039 420.769 389.836C420.769 389.164 420.582 388.57 420.207 388.055C419.832 387.523 419.277 387.016 418.543 386.531C417.824 386.047 416.347 385.273 414.113 384.211C412.019 383.227 410.449 382.281 409.402 381.375C408.355 380.469 407.519 379.414 406.894 378.211C406.269 377.008 405.957 375.602 405.957 373.992C405.957 370.961 406.98 368.578 409.027 366.844C411.089 365.109 413.933 364.242 417.558 364.242C419.339 364.242 421.035 364.453 422.644 364.875C424.269 365.297 425.964 365.891 427.73 366.656L425.386 372.305C423.558 371.555 422.043 371.031 420.839 370.734C419.652 370.438 418.48 370.289 417.324 370.289C415.949 370.289 414.894 370.609 414.16 371.25C413.425 371.891 413.058 372.727 413.058 373.758C413.058 374.398 413.207 374.961 413.503 375.445C413.8 375.914 414.269 376.375 414.91 376.828C415.566 377.266 417.105 378.062 419.527 379.219C422.73 380.75 424.925 382.289 426.113 383.836C427.3 385.367 427.894 387.25 427.894 389.484ZM433.255 395.648C433.255 394.336 433.606 393.344 434.309 392.672C435.013 392 436.036 391.664 437.38 391.664C438.677 391.664 439.677 392.008 440.38 392.695C441.098 393.383 441.458 394.367 441.458 395.648C441.458 396.883 441.098 397.859 440.38 398.578C439.661 399.281 438.661 399.633 437.38 399.633C436.067 399.633 435.052 399.289 434.333 398.602C433.614 397.898 433.255 396.914 433.255 395.648Z" fill="white"/>
<path d="M155.047 334H135.312V299.734H155.047V305.688H142.578V313.211H154.18V319.164H142.578V328H155.047V334ZM183.915 334L181.431 325.844H168.939L166.454 334H158.626L170.72 299.594H179.603L191.743 334H183.915ZM179.697 319.75C177.4 312.359 176.103 308.18 175.806 307.211C175.525 306.242 175.322 305.477 175.197 304.914C174.681 306.914 173.204 311.859 170.767 319.75H179.697ZM204.065 314.945H206.409C208.706 314.945 210.401 314.562 211.495 313.797C212.588 313.031 213.135 311.828 213.135 310.188C213.135 308.562 212.573 307.406 211.448 306.719C210.338 306.031 208.612 305.688 206.268 305.688H204.065V314.945ZM204.065 320.852V334H196.799V299.734H206.784C211.44 299.734 214.885 300.586 217.12 302.289C219.354 303.977 220.471 306.547 220.471 310C220.471 312.016 219.917 313.812 218.807 315.391C217.698 316.953 216.127 318.18 214.096 319.07C219.252 326.773 222.612 331.75 224.174 334H216.112L207.932 320.852H204.065ZM259.605 334H250.371L235.465 308.078H235.254C235.551 312.656 235.699 315.922 235.699 317.875V334H229.207V299.734H238.371L253.254 325.398H253.418C253.183 320.945 253.066 317.797 253.066 315.953V299.734H259.605V334ZM296.67 334L288.42 307.117H288.209C288.506 312.586 288.655 316.234 288.655 318.062V334H282.163V299.734H292.053L300.163 325.938H300.303L308.905 299.734H318.795V334H312.022V317.781C312.022 317.016 312.03 316.133 312.045 315.133C312.077 314.133 312.186 311.477 312.373 307.164H312.163L303.327 334H296.67ZM359.265 316.82C359.265 322.492 357.859 326.852 355.047 329.898C352.234 332.945 348.203 334.469 342.953 334.469C337.703 334.469 333.672 332.945 330.859 329.898C328.047 326.852 326.64 322.477 326.64 316.773C326.64 311.07 328.047 306.719 330.859 303.719C333.687 300.703 337.734 299.195 343 299.195C348.265 299.195 352.289 300.711 355.07 303.742C357.867 306.773 359.265 311.133 359.265 316.82ZM334.258 316.82C334.258 320.648 334.984 323.531 336.437 325.469C337.89 327.406 340.062 328.375 342.953 328.375C348.75 328.375 351.648 324.523 351.648 316.82C351.648 309.102 348.765 305.242 343 305.242C340.109 305.242 337.929 306.219 336.461 308.172C334.992 310.109 334.258 312.992 334.258 316.82ZM397.485 334H388.251L373.345 308.078H373.134C373.431 312.656 373.579 315.922 373.579 317.875V334H367.087V299.734H376.251L391.134 325.398H391.298C391.063 320.945 390.946 317.797 390.946 315.953V299.734H397.485V334ZM426.588 334H406.854V299.734H426.588V305.688H414.119V313.211H425.721V319.164H414.119V328H426.588V334ZM445.144 313.844L452.293 299.734H460.121L448.753 320.664V334H441.535V320.898L430.168 299.734H438.043L445.144 313.844ZM463.583 330.648C463.583 329.336 463.934 328.344 464.638 327.672C465.341 327 466.364 326.664 467.708 326.664C469.005 326.664 470.005 327.008 470.708 327.695C471.427 328.383 471.786 329.367 471.786 330.648C471.786 331.883 471.427 332.859 470.708 333.578C469.989 334.281 468.989 334.633 467.708 334.633C466.395 334.633 465.38 334.289 464.661 333.602C463.942 332.898 463.583 331.914 463.583 330.648Z" fill="#022E16"/>
<rect x="131" y="195" width="73" height="7" fill="#1D1D1D"/>
<g clip-path="url(#clip1)">
<path d="M540.527 859.822V868.072L547.397 868.53L546.939 858.907L540.527 859.822Z" fill="#FEB9B9"/>
<path d="M541.901 863.489L537.32 862.573C537.32 862.573 530.908 874.029 526.786 874.946C523.179 875.748 514.662 878.656 517.806 882.747C518.278 883.334 518.889 883.794 519.584 884.085C520.279 884.376 521.035 884.488 521.784 884.412L541.443 882.735C541.443 882.735 549.229 883.193 549.229 878.61V863.487L541.901 863.489Z" fill="#2F2E41"/>
<path d="M541.1 817.12L539.127 861.867L551.623 865.158L541.1 817.12Z" fill="#2F2E41"/>
<path d="M545.704 877.661V889.506L555.569 890.164L554.911 876.345L545.704 877.661Z" fill="#FEB9B9"/>
<path d="M525.316 759.87L530.577 767.766L542.415 838.835L544.389 881.611H564.12L559.516 777.639C559.516 777.639 568.723 766.452 562.147 755.266L525.316 759.87Z" fill="#2F2E41"/>
<path d="M547.677 882.925L541.1 881.609C541.1 881.609 531.892 898.061 525.973 899.376C520.899 900.504 509.061 904.533 512.823 910.219C513.48 911.167 514.378 911.922 515.424 912.406C516.471 912.889 517.627 913.083 518.774 912.968L547.022 910.562C547.022 910.562 558.202 911.221 558.202 904.64V882.925H547.677Z" fill="#2F2E41"/>
<path d="M548.335 669.717C555.963 669.717 562.146 663.53 562.146 655.898C562.146 648.266 555.963 642.079 548.335 642.079C540.707 642.079 534.524 648.266 534.524 655.898C534.524 663.53 540.707 669.717 548.335 669.717Z" fill="#FEB9B9"/>
<path d="M540.443 663.136V682.878C540.443 683.536 555.569 681.562 555.569 681.562C555.569 681.562 556.227 663.137 556.227 661.163L540.443 663.136Z" fill="#FEB9B9"/>
<path d="M556.885 671.692C556.885 671.692 548.335 669.717 533.208 679.588H530.578L529.92 694.723C529.92 694.723 520.713 704.595 522.028 708.543C522.028 708.543 510.848 721.704 515.451 726.968C515.451 726.968 504.928 739.471 509.532 744.735C509.532 744.735 498.352 759.212 504.928 761.187C504.928 761.187 519.397 761.187 527.289 762.503C535.181 763.819 568.064 756.581 568.064 756.581C568.064 756.581 568.722 739.471 568.064 739.471H567.407C567.407 739.471 570.037 723.678 568.722 723.019C568.722 723.019 569.38 705.252 567.407 704.594L556.885 671.692Z" fill="#3F3D56"/>
<path d="M554.773 686.844C552.36 687.172 550.07 688.105 548.114 689.556C546.158 691.006 544.6 692.928 543.584 695.142C541.683 699.334 541.048 703.991 541.757 708.54C543.73 721.702 548.334 725.649 548.334 725.649C548.334 725.649 543.73 727.623 545.045 729.597C546.361 731.572 543.73 731.572 543.73 731.572C543.73 731.572 543.73 732.23 541.757 733.546C539.784 734.862 538.468 734.204 537.81 734.862C537.153 735.52 534.522 734.862 534.522 734.862C534.522 734.862 526.63 748.681 534.522 749.997C542.414 751.314 545.702 744.733 548.991 745.391C552.279 746.049 568.063 740.784 566.747 728.281C565.432 715.778 559.513 686.166 554.909 686.825L554.773 686.844Z" fill="#E6E6E6"/>
<path d="M536.133 642.731C536.47 641.372 537.121 640.112 538.035 639.051C538.948 637.99 540.098 637.16 541.391 636.626C543.979 635.583 547.72 632.585 550.068 634.094C551.115 634.767 552.016 635.661 553.105 636.267C554.864 637.243 556.946 637.381 558.932 637.706C563.926 638.527 568.11 644.039 571.6 647.709C575.089 651.378 577.104 656.55 576.477 661.574C576.063 664.889 574.574 667.958 573.589 671.15C572.604 674.342 572.162 677.966 573.759 680.897C575.59 684.262 579.548 685.806 582.22 688.55C584.078 690.544 585.249 693.08 585.564 695.788C585.879 698.495 585.32 701.233 583.97 703.6C583.286 704.536 582.729 705.559 582.314 706.642C582.004 707.759 582.279 709.163 583.307 709.698C583.777 709.882 584.262 710.022 584.758 710.115C586.405 710.612 587.409 712.304 587.849 713.969C588.288 715.634 588.326 717.394 588.867 719.029C590.189 723.021 581.101 722.59 584.757 724.664C577.533 724.47 583.229 727.134 576.238 728.967C573.233 729.754 569.764 730.833 567.251 729.007C565.528 727.755 564.871 725.468 564.822 723.341C564.773 721.214 565.216 719.093 565.17 716.963C565.066 714.656 564.456 712.401 563.384 710.356C562.312 708.311 560.803 706.527 558.966 705.13C556.813 703.461 554.282 702.305 552.246 700.494C550.516 698.92 549.213 696.932 548.461 694.717C547.708 692.502 547.53 690.132 547.943 687.829C548.258 686.176 548.883 684.55 548.79 682.87C548.604 679.554 545.72 676.96 545.101 673.697C544.451 670.27 546.4 666.93 546.943 663.487C547.193 661.39 547.156 659.268 546.831 657.18C546.423 653.717 545.807 650.124 543.755 647.305C541.824 644.654 539.152 642.894 535.879 642.7C534.824 642.638 536.301 641.733 535.879 642.7" fill="#2F2E41"/>
<path d="M547.348 659.518C548.075 659.518 548.664 658.339 548.664 656.885C548.664 655.431 548.075 654.253 547.348 654.253C546.622 654.253 546.033 655.431 546.033 656.885C546.033 658.339 546.622 659.518 547.348 659.518Z" fill="#FEB9B9"/>
<path d="M158.317 473C157.868 473 157.438 473.179 157.121 473.496C156.804 473.814 156.625 474.244 156.625 474.693V532.438C156.625 532.887 156.804 533.317 157.121 533.635C157.438 533.952 157.868 534.131 158.317 534.131H355.105C355.553 534.131 355.983 533.952 356.3 533.635C356.618 533.317 356.796 532.887 356.797 532.438V474.693C356.796 474.244 356.618 473.814 356.3 473.496C355.983 473.179 355.553 473 355.105 473H158.317Z" fill="#E6E6E6"/>
<path d="M160.865 529.889H352.556V477.242H160.865V529.889Z" fill="white"/>
<path d="M328.36 518.967C327.616 518.967 326.903 519.262 326.378 519.788C325.852 520.314 325.557 521.027 325.557 521.771C325.557 522.515 325.852 523.228 326.378 523.754C326.903 524.28 327.616 524.576 328.36 524.576H339.571C340.314 524.576 341.027 524.28 341.553 523.754C342.079 523.228 342.374 522.515 342.374 521.771C342.374 521.027 342.079 520.314 341.553 519.788C341.027 519.262 340.314 518.967 339.571 518.967H328.36Z" fill="black"/>
<path d="M342.374 513.527H212.951V514.265H342.374V513.527Z" fill="#E6E6E6"/>
<path d="M185.897 519.9C194.913 519.9 202.222 512.587 202.222 503.565C202.222 494.544 194.913 487.231 185.897 487.231C176.881 487.231 169.572 494.544 169.572 503.565C169.572 512.587 176.881 519.9 185.897 519.9Z" fill="#E6E6E6"/>
<path d="M213.157 509.406L212.748 508.792L226.196 499.821L235.419 504.251L248.684 495.771L248.863 495.847L275.072 507.034L296.086 496.705L316.491 504.983L342.131 510.198L342.62 510.75L316.638 505.839L296.114 497.513L275.092 507.845L248.752 496.602L235.469 505.093L226.255 500.668L213.157 509.406Z" fill="#3F3D56"/>
<path d="M215.347 519.353C214.718 519.363 214.119 519.621 213.677 520.069C213.236 520.518 212.989 521.122 212.989 521.751C212.989 522.381 213.236 522.985 213.677 523.433C214.119 523.882 214.718 524.139 215.347 524.149H240.421C241.056 524.159 241.669 523.915 242.125 523.473C242.581 523.031 242.843 522.425 242.853 521.79C242.863 521.154 242.621 520.541 242.179 520.084C241.737 519.627 241.133 519.364 240.498 519.353C240.472 519.353 240.446 519.353 240.421 519.353H215.347Z" fill="#E6E6E6"/>
<path d="M192.464 503.363C192.373 503.272 192.265 503.199 192.146 503.15C192.028 503.101 191.9 503.076 191.772 503.076C191.643 503.076 191.516 503.101 191.397 503.15C191.278 503.199 191.17 503.272 191.079 503.363L186.876 507.568V497.198C186.876 496.938 186.772 496.69 186.589 496.507C186.405 496.324 186.157 496.221 185.897 496.221C185.638 496.221 185.389 496.324 185.206 496.507C185.022 496.69 184.919 496.938 184.918 497.198V507.568L180.715 503.363C180.624 503.271 180.516 503.199 180.398 503.149C180.279 503.1 180.151 503.074 180.023 503.074C179.894 503.074 179.766 503.099 179.647 503.149C179.528 503.198 179.42 503.27 179.329 503.361C179.238 503.452 179.166 503.56 179.117 503.679C179.068 503.799 179.042 503.926 179.042 504.055C179.043 504.184 179.068 504.311 179.118 504.43C179.167 504.549 179.239 504.657 179.331 504.748L185.205 510.626C185.389 510.81 185.638 510.913 185.897 510.913C186.157 510.913 186.406 510.81 186.59 510.626L192.464 504.748C192.648 504.564 192.751 504.315 192.751 504.055C192.751 503.795 192.648 503.546 192.464 503.363V503.363Z" fill="white"/>
<path d="M235.737 565.481C235.288 565.482 234.858 565.66 234.541 565.978C234.224 566.295 234.045 566.726 234.045 567.174V624.919C234.045 625.368 234.224 625.799 234.541 626.116C234.858 626.433 235.288 626.612 235.737 626.612H432.525C432.974 626.612 433.404 626.433 433.721 626.116C434.038 625.799 434.217 625.368 434.217 624.919V567.174C434.217 566.726 434.038 566.295 433.721 565.978C433.404 565.66 432.974 565.482 432.525 565.481H235.737Z" fill="#E6E6E6"/>
<path d="M238.285 622.37H429.977V569.724H238.285V622.37Z" fill="white"/>
<path d="M405.78 611.449C405.037 611.449 404.324 611.744 403.798 612.27C403.272 612.796 402.977 613.51 402.977 614.254C402.977 614.997 403.272 615.711 403.798 616.237C404.324 616.763 405.037 617.058 405.78 617.058H416.99C417.734 617.058 418.447 616.763 418.972 616.237C419.498 615.711 419.793 614.997 419.793 614.254C419.793 613.51 419.498 612.796 418.972 612.27C418.447 611.744 417.734 611.449 416.99 611.449H405.779H405.78Z" fill="black"/>
<path d="M419.795 606.009H290.371V606.747H419.795V606.009Z" fill="#E6E6E6"/>
<path d="M263.317 612.382C272.333 612.382 279.642 605.069 279.642 596.047C279.642 587.026 272.333 579.713 263.317 579.713C254.301 579.713 246.992 587.026 246.992 596.047C246.992 605.069 254.301 612.382 263.317 612.382Z" fill="black"/>
<path d="M290.576 601.888L290.166 601.274L303.615 592.303L312.838 596.733L326.103 588.253L326.282 588.329L352.491 599.516L373.505 589.187L393.91 597.464L419.55 574.742L420.039 575.294L394.057 598.319L373.533 589.993L352.512 600.325L326.172 589.082L312.889 597.574L303.677 593.15L290.576 601.888Z" fill="#3F3D56"/>
<path d="M292.768 611.835C292.453 611.829 292.14 611.886 291.848 612.002C291.555 612.118 291.288 612.29 291.062 612.509C290.836 612.728 290.655 612.99 290.53 613.279C290.404 613.568 290.337 613.879 290.332 614.193C290.327 614.508 290.384 614.821 290.5 615.114C290.615 615.407 290.788 615.674 291.007 615.901C291.225 616.127 291.487 616.308 291.776 616.433C292.064 616.558 292.375 616.625 292.69 616.63C292.716 616.631 292.742 616.631 292.768 616.63H317.841C318.47 616.62 319.07 616.363 319.511 615.915C319.952 615.466 320.2 614.862 320.2 614.233C320.2 613.603 319.952 612.999 319.511 612.55C319.07 612.102 318.47 611.845 317.841 611.835H292.768Z" fill="#E6E6E6"/>
<path d="M256.75 596.25C256.841 596.341 256.949 596.413 257.068 596.462C257.187 596.512 257.314 596.537 257.443 596.537C257.571 596.537 257.699 596.512 257.817 596.462C257.936 596.413 258.044 596.341 258.135 596.25L262.338 592.045V602.415C262.338 602.675 262.441 602.924 262.625 603.107C262.808 603.291 263.057 603.394 263.317 603.394C263.577 603.394 263.826 603.291 264.009 603.107C264.193 602.924 264.296 602.675 264.296 602.415V592.045L268.499 596.25C268.59 596.341 268.698 596.413 268.817 596.462C268.936 596.512 269.063 596.537 269.192 596.537C269.32 596.537 269.447 596.512 269.566 596.462C269.685 596.413 269.793 596.341 269.884 596.25C269.975 596.159 270.047 596.051 270.096 595.932C270.145 595.813 270.171 595.686 270.171 595.557C270.171 595.429 270.145 595.301 270.096 595.183C270.047 595.064 269.975 594.956 269.884 594.865L264.009 588.987C263.826 588.803 263.577 588.7 263.317 588.7C263.057 588.7 262.808 588.803 262.625 588.987L256.75 594.865C256.567 595.048 256.464 595.298 256.464 595.557C256.464 595.817 256.567 596.066 256.75 596.25V596.25Z" fill="white"/>
<path d="M132.692 657.963C132.243 657.964 131.813 658.142 131.496 658.46C131.179 658.777 131 659.207 131 659.656V717.401C131 717.85 131.179 718.28 131.496 718.598C131.813 718.915 132.243 719.094 132.692 719.094H329.48C329.928 719.094 330.358 718.915 330.675 718.598C330.993 718.28 331.171 717.85 331.172 717.401V659.656C331.171 659.207 330.993 658.777 330.675 658.46C330.358 658.142 329.928 657.964 329.48 657.963H132.692Z" fill="#E6E6E6"/>
<path d="M135.24 714.852H326.932V662.205H135.24V714.852Z" fill="white"/>
<path d="M302.735 703.93C301.991 703.93 301.278 704.226 300.753 704.752C300.227 705.278 299.932 705.991 299.932 706.735C299.932 707.479 300.227 708.192 300.753 708.718C301.278 709.244 301.991 709.539 302.735 709.539H313.946C314.689 709.539 315.402 709.244 315.928 708.718C316.454 708.192 316.749 707.479 316.749 706.735C316.749 705.991 316.454 705.278 315.928 704.752C315.402 704.226 314.689 703.93 313.946 703.93H302.735Z" fill="black"/>
<path d="M316.749 698.49H187.325V699.229H316.749V698.49Z" fill="#E6E6E6"/>
<path d="M160.272 704.863C169.288 704.863 176.598 697.55 176.598 688.529C176.598 679.507 169.288 672.194 160.272 672.194C151.256 672.194 143.947 679.507 143.947 688.529C143.947 697.55 151.256 704.863 160.272 704.863Z" fill="black"/>
<path d="M187.53 694.37L187.121 693.756L200.57 684.785L209.792 689.214L223.058 680.732L249.446 691.994L270.459 681.665L290.862 689.946L316.502 679.64L316.991 680.192L291.012 690.802L270.488 682.476L249.467 692.808L223.127 681.565L209.844 690.057L200.63 685.632L187.53 694.37Z" fill="#3F3D56"/>
<path d="M189.722 704.316C189.094 704.326 188.494 704.583 188.053 705.032C187.611 705.48 187.364 706.085 187.364 706.714C187.364 707.343 187.611 707.947 188.053 708.396C188.494 708.845 189.094 709.102 189.722 709.112H214.796C215.431 709.122 216.045 708.88 216.502 708.437C216.959 707.995 217.221 707.389 217.231 706.753C217.242 706.117 216.999 705.503 216.557 705.046C216.115 704.589 215.51 704.326 214.874 704.316C214.848 704.316 214.822 704.316 214.796 704.316H189.722Z" fill="#E6E6E6"/>
<path d="M153.706 688.732C153.796 688.823 153.904 688.895 154.023 688.944C154.142 688.993 154.269 689.018 154.398 689.018C154.526 689.018 154.654 688.993 154.773 688.944C154.891 688.895 154.999 688.823 155.09 688.732L159.293 684.526V694.896C159.293 695.025 159.318 695.153 159.367 695.272C159.416 695.391 159.488 695.499 159.579 695.591C159.67 695.682 159.778 695.754 159.897 695.804C160.016 695.853 160.144 695.878 160.272 695.878C160.401 695.878 160.529 695.853 160.648 695.804C160.766 695.754 160.875 695.682 160.965 695.591C161.056 695.499 161.129 695.391 161.178 695.272C161.227 695.153 161.252 695.025 161.251 694.896V684.526L165.454 688.732C165.545 688.823 165.653 688.895 165.772 688.945C165.891 688.994 166.018 689.02 166.147 689.02C166.276 689.02 166.403 688.995 166.522 688.945C166.641 688.896 166.749 688.824 166.84 688.733C166.931 688.642 167.004 688.534 167.053 688.415C167.102 688.296 167.127 688.168 167.127 688.039C167.127 687.91 167.101 687.783 167.052 687.664C167.003 687.545 166.93 687.437 166.839 687.346L160.965 681.468C160.781 681.285 160.532 681.181 160.272 681.181C160.013 681.181 159.764 681.285 159.58 681.468L153.706 687.346C153.522 687.53 153.419 687.779 153.419 688.039C153.419 688.299 153.522 688.548 153.706 688.732V688.732Z" fill="white"/>
</g>
<path d="M0 0H703V925C703 979.676 658.676 1024 604 1024H0V0Z" fill="#01A34B"/>
<path d="M149.211 166.021C149.211 168.307 148.385 170.1 146.732 171.4C145.08 172.701 142.801 173.352 139.895 173.352C136.988 173.352 134.609 172.9 132.758 171.998V168.025C133.93 168.576 135.172 169.01 136.484 169.326C137.809 169.643 139.039 169.801 140.176 169.801C141.84 169.801 143.064 169.484 143.85 168.852C144.646 168.219 145.045 167.369 145.045 166.303C145.045 165.342 144.682 164.527 143.955 163.859C143.229 163.191 141.729 162.4 139.455 161.486C137.111 160.537 135.459 159.453 134.498 158.234C133.537 157.016 133.057 155.551 133.057 153.84C133.057 151.695 133.818 150.008 135.342 148.777C136.865 147.547 138.91 146.932 141.477 146.932C143.938 146.932 146.387 147.471 148.824 148.549L147.488 151.977C145.203 151.016 143.164 150.535 141.371 150.535C140.012 150.535 138.98 150.834 138.277 151.432C137.574 152.018 137.223 152.797 137.223 153.77C137.223 154.438 137.363 155.012 137.645 155.492C137.926 155.961 138.389 156.406 139.033 156.828C139.678 157.25 140.838 157.807 142.514 158.498C144.4 159.283 145.783 160.016 146.662 160.695C147.541 161.375 148.186 162.143 148.596 162.998C149.006 163.854 149.211 164.861 149.211 166.021ZM163.603 173H159.401V150.904H151.843V147.301H171.161V150.904H163.603V173ZM191.6 173L189.033 165.863H179.207L176.693 173H172.264L181.879 147.195H186.449L196.064 173H191.6ZM187.926 162.242L185.518 155.246C185.342 154.777 185.096 154.039 184.779 153.031C184.475 152.023 184.264 151.285 184.146 150.816C183.83 152.258 183.367 153.834 182.758 155.545L180.437 162.242H187.926ZM199.997 173V147.301H204.198V169.396H215.079V173H199.997ZM239.666 173H234.797L226.728 161.363L224.25 163.385V173H220.049V147.301H224.25V159.57C225.398 158.164 226.541 156.811 227.678 155.51L234.621 147.301H239.402C234.914 152.574 231.697 156.33 229.752 158.568L239.666 173Z" fill="#1D1D1D"/>
<path d="M149.867 240.289C147.133 240.289 145.016 241.32 143.516 243.383C142.016 245.43 141.266 248.289 141.266 251.961C141.266 259.602 144.133 263.422 149.867 263.422C152.273 263.422 155.188 262.82 158.609 261.617V267.711C155.797 268.883 152.656 269.469 149.188 269.469C144.203 269.469 140.391 267.961 137.75 264.945C135.109 261.914 133.789 257.57 133.789 251.914C133.789 248.352 134.438 245.234 135.734 242.562C137.031 239.875 138.891 237.82 141.312 236.398C143.75 234.961 146.602 234.242 149.867 234.242C153.195 234.242 156.539 235.047 159.898 236.656L157.555 242.562C156.273 241.953 154.984 241.422 153.688 240.969C152.391 240.516 151.117 240.289 149.867 240.289ZM197.743 251.82C197.743 257.492 196.337 261.852 193.525 264.898C190.712 267.945 186.681 269.469 181.431 269.469C176.181 269.469 172.15 267.945 169.337 264.898C166.525 261.852 165.118 257.477 165.118 251.773C165.118 246.07 166.525 241.719 169.337 238.719C172.165 235.703 176.212 234.195 181.478 234.195C186.743 234.195 190.767 235.711 193.548 238.742C196.345 241.773 197.743 246.133 197.743 251.82ZM172.736 251.82C172.736 255.648 173.462 258.531 174.915 260.469C176.368 262.406 178.54 263.375 181.431 263.375C187.228 263.375 190.126 259.523 190.126 251.82C190.126 244.102 187.243 240.242 181.478 240.242C178.587 240.242 176.407 241.219 174.939 243.172C173.47 245.109 172.736 247.992 172.736 251.82ZM220.073 269L211.823 242.117H211.612C211.909 247.586 212.057 251.234 212.057 253.062V269H205.565V234.734H215.456L223.565 260.938H223.706L232.307 234.734H242.198V269H235.424V252.781C235.424 252.016 235.432 251.133 235.448 250.133C235.479 249.133 235.588 246.477 235.776 242.164H235.565L226.729 269H220.073ZM258.832 250.859H261.223C263.457 250.859 265.129 250.422 266.238 249.547C267.348 248.656 267.902 247.367 267.902 245.68C267.902 243.977 267.433 242.719 266.496 241.906C265.574 241.094 264.121 240.688 262.137 240.688H258.832V250.859ZM275.238 245.422C275.238 249.109 274.082 251.93 271.769 253.883C269.473 255.836 266.199 256.812 261.949 256.812H258.832V269H251.566V234.734H262.512C266.668 234.734 269.824 235.633 271.98 237.43C274.152 239.211 275.238 241.875 275.238 245.422ZM282.427 269V234.734H289.693V263H303.591V269H282.427ZM330.022 269H310.288V234.734H330.022V240.688H317.553V248.211H329.155V254.164H317.553V263H330.022V269ZM351.133 269H343.867V240.781H334.562V234.734H360.437V240.781H351.133V269ZM386.165 269H366.431V234.734H386.165V240.688H373.696V248.211H385.298V254.164H373.696V263H386.165V269ZM420.464 269H413.199V240.781H403.894V234.734H429.769V240.781H420.464V269ZM456.739 269L454.255 260.844H441.763L439.278 269H431.45L443.544 234.594H452.427L464.567 269H456.739ZM452.52 254.75C450.223 247.359 448.927 243.18 448.63 242.211C448.348 241.242 448.145 240.477 448.02 239.914C447.505 241.914 446.028 246.859 443.591 254.75H452.52ZM489.85 259.484C489.85 262.578 488.733 265.016 486.498 266.797C484.279 268.578 481.186 269.469 477.217 269.469C473.561 269.469 470.326 268.781 467.514 267.406V260.656C469.826 261.688 471.779 262.414 473.373 262.836C474.983 263.258 476.451 263.469 477.779 263.469C479.373 263.469 480.592 263.164 481.436 262.555C482.295 261.945 482.725 261.039 482.725 259.836C482.725 259.164 482.537 258.57 482.162 258.055C481.787 257.523 481.233 257.016 480.498 256.531C479.779 256.047 478.303 255.273 476.068 254.211C473.975 253.227 472.404 252.281 471.358 251.375C470.311 250.469 469.475 249.414 468.85 248.211C468.225 247.008 467.912 245.602 467.912 243.992C467.912 240.961 468.936 238.578 470.983 236.844C473.045 235.109 475.889 234.242 479.514 234.242C481.295 234.242 482.99 234.453 484.6 234.875C486.225 235.297 487.92 235.891 489.686 236.656L487.342 242.305C485.514 241.555 483.998 241.031 482.795 240.734C481.608 240.438 480.436 240.289 479.279 240.289C477.904 240.289 476.85 240.609 476.115 241.25C475.381 241.891 475.014 242.727 475.014 243.758C475.014 244.398 475.162 244.961 475.459 245.445C475.756 245.914 476.225 246.375 476.865 246.828C477.522 247.266 479.061 248.062 481.483 249.219C484.686 250.75 486.881 252.289 488.068 253.836C489.256 255.367 489.85 257.25 489.85 259.484ZM524.343 269H516.093L507.117 254.562L504.046 256.766V269H496.781V234.734H504.046V250.414L506.906 246.383L516.187 234.734H524.249L512.296 249.898L524.343 269ZM549.602 259.484C549.602 262.578 548.485 265.016 546.251 266.797C544.032 268.578 540.938 269.469 536.969 269.469C533.313 269.469 530.079 268.781 527.266 267.406V260.656C529.579 261.688 531.532 262.414 533.126 262.836C534.735 263.258 536.204 263.469 537.532 263.469C539.126 263.469 540.344 263.164 541.188 262.555C542.047 261.945 542.477 261.039 542.477 259.836C542.477 259.164 542.29 258.57 541.915 258.055C541.54 257.523 540.985 257.016 540.251 256.531C539.532 256.047 538.055 255.273 535.821 254.211C533.727 253.227 532.157 252.281 531.11 251.375C530.063 250.469 529.227 249.414 528.602 248.211C527.977 247.008 527.665 245.602 527.665 243.992C527.665 240.961 528.688 238.578 530.735 236.844C532.797 235.109 535.641 234.242 539.266 234.242C541.047 234.242 542.743 234.453 544.352 234.875C545.977 235.297 547.672 235.891 549.438 236.656L547.094 242.305C545.266 241.555 543.751 241.031 542.547 240.734C541.36 240.438 540.188 240.289 539.032 240.289C537.657 240.289 536.602 240.609 535.868 241.25C535.133 241.891 534.766 242.727 534.766 243.758C534.766 244.398 534.915 244.961 535.212 245.445C535.508 245.914 535.977 246.375 536.618 246.828C537.274 247.266 538.813 248.062 541.235 249.219C544.438 250.75 546.633 252.289 547.821 253.836C549.008 255.367 549.602 257.25 549.602 259.484ZM554.963 265.648C554.963 264.336 555.314 263.344 556.017 262.672C556.721 262 557.744 261.664 559.088 261.664C560.385 261.664 561.385 262.008 562.088 262.695C562.807 263.383 563.166 264.367 563.166 265.648C563.166 266.883 562.807 267.859 562.088 268.578C561.369 269.281 560.369 269.633 559.088 269.633C557.775 269.633 556.76 269.289 556.041 268.602C555.322 267.898 554.963 266.914 554.963 265.648ZM135.312 364.734H145.977C150.836 364.734 154.359 365.43 156.547 366.82C158.75 368.195 159.852 370.391 159.852 373.406C159.852 375.453 159.367 377.133 158.398 378.445C157.445 379.758 156.172 380.547 154.578 380.812V381.047C156.75 381.531 158.312 382.438 159.266 383.766C160.234 385.094 160.719 386.859 160.719 389.062C160.719 392.188 159.586 394.625 157.32 396.375C155.07 398.125 152.008 399 148.133 399H135.312V364.734ZM142.578 378.305H146.797C148.766 378.305 150.188 378 151.062 377.391C151.953 376.781 152.398 375.773 152.398 374.367C152.398 373.055 151.914 372.117 150.945 371.555C149.992 370.977 148.477 370.688 146.398 370.688H142.578V378.305ZM142.578 384.07V393H147.312C149.312 393 150.789 392.617 151.742 391.852C152.695 391.086 153.172 389.914 153.172 388.336C153.172 385.492 151.141 384.07 147.078 384.07H142.578ZM196.173 364.734V386.906C196.173 389.438 195.603 391.656 194.462 393.562C193.337 395.469 191.704 396.93 189.564 397.945C187.423 398.961 184.892 399.469 181.97 399.469C177.564 399.469 174.142 398.344 171.704 396.094C169.267 393.828 168.048 390.734 168.048 386.812V364.734H175.29V385.711C175.29 388.352 175.822 390.289 176.884 391.523C177.947 392.758 179.704 393.375 182.158 393.375C184.533 393.375 186.251 392.758 187.314 391.523C188.392 390.273 188.931 388.32 188.931 385.664V364.734H196.173ZM215.948 378.844L223.096 364.734H230.924L219.557 385.664V399H212.338V385.898L200.971 364.734H208.846L215.948 378.844ZM269.372 389.484C269.372 392.578 268.255 395.016 266.021 396.797C263.802 398.578 260.708 399.469 256.739 399.469C253.083 399.469 249.849 398.781 247.036 397.406V390.656C249.349 391.688 251.302 392.414 252.896 392.836C254.505 393.258 255.974 393.469 257.302 393.469C258.896 393.469 260.114 393.164 260.958 392.555C261.817 391.945 262.247 391.039 262.247 389.836C262.247 389.164 262.06 388.57 261.685 388.055C261.31 387.523 260.755 387.016 260.021 386.531C259.302 386.047 257.825 385.273 255.591 384.211C253.497 383.227 251.927 382.281 250.88 381.375C249.833 380.469 248.997 379.414 248.372 378.211C247.747 377.008 247.435 375.602 247.435 373.992C247.435 370.961 248.458 368.578 250.505 366.844C252.567 365.109 255.411 364.242 259.036 364.242C260.817 364.242 262.513 364.453 264.122 364.875C265.747 365.297 267.442 365.891 269.208 366.656L266.864 372.305C265.036 371.555 263.521 371.031 262.317 370.734C261.13 370.438 259.958 370.289 258.802 370.289C257.427 370.289 256.372 370.609 255.638 371.25C254.903 371.891 254.536 372.727 254.536 373.758C254.536 374.398 254.685 374.961 254.982 375.445C255.278 375.914 255.747 376.375 256.388 376.828C257.044 377.266 258.583 378.062 261.005 379.219C264.208 380.75 266.403 382.289 267.591 383.836C268.778 385.367 269.372 387.25 269.372 389.484ZM289.522 399H282.256V370.781H272.952V364.734H298.827V370.781H289.522V399ZM335.922 381.82C335.922 387.492 334.515 391.852 331.703 394.898C328.89 397.945 324.859 399.469 319.609 399.469C314.359 399.469 310.328 397.945 307.515 394.898C304.703 391.852 303.297 387.477 303.297 381.773C303.297 376.07 304.703 371.719 307.515 368.719C310.343 365.703 314.39 364.195 319.656 364.195C324.922 364.195 328.945 365.711 331.726 368.742C334.523 371.773 335.922 376.133 335.922 381.82ZM310.914 381.82C310.914 385.648 311.64 388.531 313.093 390.469C314.547 392.406 316.718 393.375 319.609 393.375C325.406 393.375 328.304 389.523 328.304 381.82C328.304 374.102 325.422 370.242 319.656 370.242C316.765 370.242 314.586 371.219 313.117 373.172C311.648 375.109 310.914 377.992 310.914 381.82ZM358.298 370.289C355.563 370.289 353.446 371.32 351.946 373.383C350.446 375.43 349.696 378.289 349.696 381.961C349.696 389.602 352.563 393.422 358.298 393.422C360.704 393.422 363.618 392.82 367.04 391.617V397.711C364.227 398.883 361.087 399.469 357.618 399.469C352.634 399.469 348.821 397.961 346.181 394.945C343.54 391.914 342.22 387.57 342.22 381.914C342.22 378.352 342.868 375.234 344.165 372.562C345.462 369.875 347.321 367.82 349.743 366.398C352.181 364.961 355.032 364.242 358.298 364.242C361.626 364.242 364.97 365.047 368.329 366.656L365.985 372.562C364.704 371.953 363.415 371.422 362.118 370.969C360.821 370.516 359.548 370.289 358.298 370.289ZM402.635 399H394.385L385.408 384.562L382.338 386.766V399H375.072V364.734H382.338V380.414L385.197 376.383L394.479 364.734H402.541L390.588 379.898L402.635 399ZM427.894 389.484C427.894 392.578 426.777 395.016 424.543 396.797C422.324 398.578 419.23 399.469 415.261 399.469C411.605 399.469 408.371 398.781 405.558 397.406V390.656C407.871 391.688 409.824 392.414 411.418 392.836C413.027 393.258 414.496 393.469 415.824 393.469C417.418 393.469 418.636 393.164 419.48 392.555C420.339 391.945 420.769 391.039 420.769 389.836C420.769 389.164 420.582 388.57 420.207 388.055C419.832 387.523 419.277 387.016 418.543 386.531C417.824 386.047 416.347 385.273 414.113 384.211C412.019 383.227 410.449 382.281 409.402 381.375C408.355 380.469 407.519 379.414 406.894 378.211C406.269 377.008 405.957 375.602 405.957 373.992C405.957 370.961 406.98 368.578 409.027 366.844C411.089 365.109 413.933 364.242 417.558 364.242C419.339 364.242 421.035 364.453 422.644 364.875C424.269 365.297 425.964 365.891 427.73 366.656L425.386 372.305C423.558 371.555 422.043 371.031 420.839 370.734C419.652 370.438 418.48 370.289 417.324 370.289C415.949 370.289 414.894 370.609 414.16 371.25C413.425 371.891 413.058 372.727 413.058 373.758C413.058 374.398 413.207 374.961 413.503 375.445C413.8 375.914 414.269 376.375 414.91 376.828C415.566 377.266 417.105 378.062 419.527 379.219C422.73 380.75 424.925 382.289 426.113 383.836C427.3 385.367 427.894 387.25 427.894 389.484ZM433.255 395.648C433.255 394.336 433.606 393.344 434.309 392.672C435.013 392 436.036 391.664 437.38 391.664C438.677 391.664 439.677 392.008 440.38 392.695C441.098 393.383 441.458 394.367 441.458 395.648C441.458 396.883 441.098 397.859 440.38 398.578C439.661 399.281 438.661 399.633 437.38 399.633C436.067 399.633 435.052 399.289 434.333 398.602C433.614 397.898 433.255 396.914 433.255 395.648Z" fill="white"/>
<path d="M155.047 334H135.312V299.734H155.047V305.688H142.578V313.211H154.18V319.164H142.578V328H155.047V334ZM183.915 334L181.431 325.844H168.939L166.454 334H158.626L170.72 299.594H179.603L191.743 334H183.915ZM179.697 319.75C177.4 312.359 176.103 308.18 175.806 307.211C175.525 306.242 175.322 305.477 175.197 304.914C174.681 306.914 173.204 311.859 170.767 319.75H179.697ZM204.065 314.945H206.409C208.706 314.945 210.401 314.562 211.495 313.797C212.588 313.031 213.135 311.828 213.135 310.188C213.135 308.562 212.573 307.406 211.448 306.719C210.338 306.031 208.612 305.688 206.268 305.688H204.065V314.945ZM204.065 320.852V334H196.799V299.734H206.784C211.44 299.734 214.885 300.586 217.12 302.289C219.354 303.977 220.471 306.547 220.471 310C220.471 312.016 219.917 313.812 218.807 315.391C217.698 316.953 216.127 318.18 214.096 319.07C219.252 326.773 222.612 331.75 224.174 334H216.112L207.932 320.852H204.065ZM259.605 334H250.371L235.465 308.078H235.254C235.551 312.656 235.699 315.922 235.699 317.875V334H229.207V299.734H238.371L253.254 325.398H253.418C253.183 320.945 253.066 317.797 253.066 315.953V299.734H259.605V334ZM296.67 334L288.42 307.117H288.209C288.506 312.586 288.655 316.234 288.655 318.062V334H282.163V299.734H292.053L300.163 325.938H300.303L308.905 299.734H318.795V334H312.022V317.781C312.022 317.016 312.03 316.133 312.045 315.133C312.077 314.133 312.186 311.477 312.373 307.164H312.163L303.327 334H296.67ZM359.265 316.82C359.265 322.492 357.859 326.852 355.047 329.898C352.234 332.945 348.203 334.469 342.953 334.469C337.703 334.469 333.672 332.945 330.859 329.898C328.047 326.852 326.64 322.477 326.64 316.773C326.64 311.07 328.047 306.719 330.859 303.719C333.687 300.703 337.734 299.195 343 299.195C348.265 299.195 352.289 300.711 355.07 303.742C357.867 306.773 359.265 311.133 359.265 316.82ZM334.258 316.82C334.258 320.648 334.984 323.531 336.437 325.469C337.89 327.406 340.062 328.375 342.953 328.375C348.75 328.375 351.648 324.523 351.648 316.82C351.648 309.102 348.765 305.242 343 305.242C340.109 305.242 337.929 306.219 336.461 308.172C334.992 310.109 334.258 312.992 334.258 316.82ZM397.485 334H388.251L373.345 308.078H373.134C373.431 312.656 373.579 315.922 373.579 317.875V334H367.087V299.734H376.251L391.134 325.398H391.298C391.063 320.945 390.946 317.797 390.946 315.953V299.734H397.485V334ZM426.588 334H406.854V299.734H426.588V305.688H414.119V313.211H425.721V319.164H414.119V328H426.588V334ZM445.144 313.844L452.293 299.734H460.121L448.753 320.664V334H441.535V320.898L430.168 299.734H438.043L445.144 313.844ZM463.583 330.648C463.583 329.336 463.934 328.344 464.638 327.672C465.341 327 466.364 326.664 467.708 326.664C469.005 326.664 470.005 327.008 470.708 327.695C471.427 328.383 471.786 329.367 471.786 330.648C471.786 331.883 471.427 332.859 470.708 333.578C469.989 334.281 468.989 334.633 467.708 334.633C466.395 334.633 465.38 334.289 464.661 333.602C463.942 332.898 463.583 331.914 463.583 330.648Z" fill="#022E16"/>
<rect x="131" y="195" width="73" height="7" fill="#1D1D1D"/>
<g clip-path="url(#clip2)">
<path d="M540.527 859.822V868.072L547.397 868.53L546.939 858.907L540.527 859.822Z" fill="#FEB9B9"/>
<path d="M541.901 863.489L537.32 862.573C537.32 862.573 530.908 874.029 526.786 874.946C523.179 875.748 514.662 878.656 517.806 882.747C518.278 883.334 518.889 883.794 519.584 884.085C520.279 884.376 521.035 884.488 521.784 884.412L541.443 882.735C541.443 882.735 549.229 883.193 549.229 878.61V863.487L541.901 863.489Z" fill="#2F2E41"/>
<path d="M541.1 817.12L539.127 861.867L551.623 865.158L541.1 817.12Z" fill="#2F2E41"/>
<path d="M545.704 877.661V889.506L555.569 890.164L554.911 876.345L545.704 877.661Z" fill="#FEB9B9"/>
<path d="M525.316 759.87L530.577 767.766L542.415 838.835L544.389 881.611H564.12L559.516 777.639C559.516 777.639 568.723 766.452 562.147 755.266L525.316 759.87Z" fill="#2F2E41"/>
<path d="M547.677 882.925L541.1 881.609C541.1 881.609 531.892 898.061 525.973 899.376C520.899 900.504 509.061 904.533 512.823 910.219C513.48 911.167 514.378 911.922 515.424 912.406C516.471 912.889 517.627 913.083 518.774 912.968L547.022 910.562C547.022 910.562 558.202 911.221 558.202 904.64V882.925H547.677Z" fill="#2F2E41"/>
<path d="M548.335 669.717C555.963 669.717 562.146 663.53 562.146 655.898C562.146 648.266 555.963 642.079 548.335 642.079C540.707 642.079 534.524 648.266 534.524 655.898C534.524 663.53 540.707 669.717 548.335 669.717Z" fill="#FEB9B9"/>
<path d="M540.443 663.136V682.878C540.443 683.536 555.569 681.562 555.569 681.562C555.569 681.562 556.227 663.137 556.227 661.163L540.443 663.136Z" fill="#FEB9B9"/>
<path d="M556.885 671.692C556.885 671.692 548.335 669.717 533.208 679.588H530.578L529.92 694.723C529.92 694.723 520.713 704.595 522.028 708.543C522.028 708.543 510.848 721.704 515.451 726.968C515.451 726.968 504.928 739.471 509.532 744.735C509.532 744.735 498.352 759.212 504.928 761.187C504.928 761.187 519.397 761.187 527.289 762.503C535.181 763.819 568.064 756.581 568.064 756.581C568.064 756.581 568.722 739.471 568.064 739.471H567.407C567.407 739.471 570.037 723.678 568.722 723.019C568.722 723.019 569.38 705.252 567.407 704.594L556.885 671.692Z" fill="#3F3D56"/>
<path d="M554.773 686.844C552.36 687.172 550.07 688.105 548.114 689.556C546.158 691.006 544.6 692.928 543.584 695.142C541.683 699.334 541.048 703.991 541.757 708.54C543.73 721.702 548.334 725.649 548.334 725.649C548.334 725.649 543.73 727.623 545.045 729.597C546.361 731.572 543.73 731.572 543.73 731.572C543.73 731.572 543.73 732.23 541.757 733.546C539.784 734.862 538.468 734.204 537.81 734.862C537.153 735.52 534.522 734.862 534.522 734.862C534.522 734.862 526.63 748.681 534.522 749.997C542.414 751.314 545.702 744.733 548.991 745.391C552.279 746.049 568.063 740.784 566.747 728.281C565.432 715.778 559.513 686.166 554.909 686.825L554.773 686.844Z" fill="#E6E6E6"/>
<path d="M536.133 642.731C536.47 641.372 537.121 640.112 538.035 639.051C538.948 637.99 540.098 637.16 541.391 636.626C543.979 635.583 547.72 632.585 550.068 634.094C551.115 634.767 552.016 635.661 553.105 636.267C554.864 637.243 556.946 637.381 558.932 637.706C563.926 638.527 568.11 644.039 571.6 647.709C575.089 651.378 577.104 656.55 576.477 661.574C576.063 664.889 574.574 667.958 573.589 671.15C572.604 674.342 572.162 677.966 573.759 680.897C575.59 684.262 579.548 685.806 582.22 688.55C584.078 690.544 585.249 693.08 585.564 695.788C585.879 698.495 585.32 701.233 583.97 703.6C583.286 704.536 582.729 705.559 582.314 706.642C582.004 707.759 582.279 709.163 583.307 709.698C583.777 709.882 584.262 710.022 584.758 710.115C586.405 710.612 587.409 712.304 587.849 713.969C588.288 715.634 588.326 717.394 588.867 719.029C590.189 723.021 581.101 722.59 584.757 724.664C577.533 724.47 583.229 727.134 576.238 728.967C573.233 729.754 569.764 730.833 567.251 729.007C565.528 727.755 564.871 725.468 564.822 723.341C564.773 721.214 565.216 719.093 565.17 716.963C565.066 714.656 564.456 712.401 563.384 710.356C562.312 708.311 560.803 706.527 558.966 705.13C556.813 703.461 554.282 702.305 552.246 700.494C550.516 698.92 549.213 696.932 548.461 694.717C547.708 692.502 547.53 690.132 547.943 687.829C548.258 686.176 548.883 684.55 548.79 682.87C548.604 679.554 545.72 676.96 545.101 673.697C544.451 670.27 546.4 666.93 546.943 663.487C547.193 661.39 547.156 659.268 546.831 657.18C546.423 653.717 545.807 650.124 543.755 647.305C541.824 644.654 539.152 642.894 535.879 642.7C534.824 642.638 536.301 641.733 535.879 642.7" fill="#2F2E41"/>
<path d="M547.348 659.518C548.075 659.518 548.664 658.339 548.664 656.885C548.664 655.431 548.075 654.253 547.348 654.253C546.622 654.253 546.033 655.431 546.033 656.885C546.033 658.339 546.622 659.518 547.348 659.518Z" fill="#FEB9B9"/>
<path d="M158.317 473C157.868 473 157.438 473.179 157.121 473.496C156.804 473.814 156.625 474.244 156.625 474.693V532.438C156.625 532.887 156.804 533.317 157.121 533.635C157.438 533.952 157.868 534.131 158.317 534.131H355.105C355.553 534.131 355.983 533.952 356.3 533.635C356.618 533.317 356.796 532.887 356.797 532.438V474.693C356.796 474.244 356.618 473.814 356.3 473.496C355.983 473.179 355.553 473 355.105 473H158.317Z" fill="#E6E6E6"/>
<path d="M160.865 529.889H352.556V477.242H160.865V529.889Z" fill="white"/>
<path d="M328.36 518.967C327.616 518.967 326.903 519.262 326.378 519.788C325.852 520.314 325.557 521.027 325.557 521.771C325.557 522.515 325.852 523.228 326.378 523.754C326.903 524.28 327.616 524.576 328.36 524.576H339.571C340.314 524.576 341.027 524.28 341.553 523.754C342.079 523.228 342.374 522.515 342.374 521.771C342.374 521.027 342.079 520.314 341.553 519.788C341.027 519.262 340.314 518.967 339.571 518.967H328.36Z" fill="black"/>
<path d="M342.374 513.527H212.951V514.265H342.374V513.527Z" fill="#E6E6E6"/>
<path d="M185.897 519.9C194.913 519.9 202.222 512.587 202.222 503.565C202.222 494.544 194.913 487.231 185.897 487.231C176.881 487.231 169.572 494.544 169.572 503.565C169.572 512.587 176.881 519.9 185.897 519.9Z" fill="#E6E6E6"/>
<path d="M213.157 509.406L212.748 508.792L226.196 499.821L235.419 504.251L248.684 495.771L248.863 495.847L275.072 507.034L296.086 496.705L316.491 504.983L342.131 510.198L342.62 510.75L316.638 505.839L296.114 497.513L275.092 507.845L248.752 496.602L235.469 505.093L226.255 500.668L213.157 509.406Z" fill="#3F3D56"/>
<path d="M215.347 519.353C214.718 519.363 214.119 519.621 213.677 520.069C213.236 520.518 212.989 521.122 212.989 521.751C212.989 522.381 213.236 522.985 213.677 523.433C214.119 523.882 214.718 524.139 215.347 524.149H240.421C241.056 524.159 241.669 523.915 242.125 523.473C242.581 523.031 242.843 522.425 242.853 521.79C242.863 521.154 242.621 520.541 242.179 520.084C241.737 519.627 241.133 519.364 240.498 519.353C240.472 519.353 240.446 519.353 240.421 519.353H215.347Z" fill="#E6E6E6"/>
<path d="M192.464 503.363C192.373 503.272 192.265 503.199 192.146 503.15C192.028 503.101 191.9 503.076 191.772 503.076C191.643 503.076 191.516 503.101 191.397 503.15C191.278 503.199 191.17 503.272 191.079 503.363L186.876 507.568V497.198C186.876 496.938 186.772 496.69 186.589 496.507C186.405 496.324 186.157 496.221 185.897 496.221C185.638 496.221 185.389 496.324 185.206 496.507C185.022 496.69 184.919 496.938 184.918 497.198V507.568L180.715 503.363C180.624 503.271 180.516 503.199 180.398 503.149C180.279 503.1 180.151 503.074 180.023 503.074C179.894 503.074 179.766 503.099 179.647 503.149C179.528 503.198 179.42 503.27 179.329 503.361C179.238 503.452 179.166 503.56 179.117 503.679C179.068 503.799 179.042 503.926 179.042 504.055C179.043 504.184 179.068 504.311 179.118 504.43C179.167 504.549 179.239 504.657 179.331 504.748L185.205 510.626C185.389 510.81 185.638 510.913 185.897 510.913C186.157 510.913 186.406 510.81 186.59 510.626L192.464 504.748C192.648 504.564 192.751 504.315 192.751 504.055C192.751 503.795 192.648 503.546 192.464 503.363V503.363Z" fill="white"/>
<path d="M235.737 565.481C235.288 565.482 234.858 565.66 234.541 565.978C234.224 566.295 234.045 566.726 234.045 567.174V624.919C234.045 625.368 234.224 625.799 234.541 626.116C234.858 626.433 235.288 626.612 235.737 626.612H432.525C432.974 626.612 433.404 626.433 433.721 626.116C434.038 625.799 434.217 625.368 434.217 624.919V567.174C434.217 566.726 434.038 566.295 433.721 565.978C433.404 565.66 432.974 565.482 432.525 565.481H235.737Z" fill="#E6E6E6"/>
<path d="M238.285 622.37H429.977V569.724H238.285V622.37Z" fill="white"/>
<path d="M405.78 611.449C405.037 611.449 404.324 611.744 403.798 612.27C403.272 612.796 402.977 613.51 402.977 614.254C402.977 614.997 403.272 615.711 403.798 616.237C404.324 616.763 405.037 617.058 405.78 617.058H416.99C417.734 617.058 418.447 616.763 418.972 616.237C419.498 615.711 419.793 614.997 419.793 614.254C419.793 613.51 419.498 612.796 418.972 612.27C418.447 611.744 417.734 611.449 416.99 611.449H405.779H405.78Z" fill="black"/>
<path d="M419.795 606.009H290.371V606.747H419.795V606.009Z" fill="#E6E6E6"/>
<path d="M263.317 612.382C272.333 612.382 279.642 605.069 279.642 596.047C279.642 587.026 272.333 579.713 263.317 579.713C254.301 579.713 246.992 587.026 246.992 596.047C246.992 605.069 254.301 612.382 263.317 612.382Z" fill="black"/>
<path d="M290.576 601.888L290.166 601.274L303.615 592.303L312.838 596.733L326.103 588.253L326.282 588.329L352.491 599.516L373.505 589.187L393.91 597.464L419.55 574.742L420.039 575.294L394.057 598.319L373.533 589.993L352.512 600.325L326.172 589.082L312.889 597.574L303.677 593.15L290.576 601.888Z" fill="#3F3D56"/>
<path d="M292.768 611.835C292.453 611.829 292.14 611.886 291.848 612.002C291.555 612.118 291.288 612.29 291.062 612.509C290.836 612.728 290.655 612.99 290.53 613.279C290.404 613.568 290.337 613.879 290.332 614.193C290.327 614.508 290.384 614.821 290.5 615.114C290.615 615.407 290.788 615.674 291.007 615.901C291.225 616.127 291.487 616.308 291.776 616.433C292.064 616.558 292.375 616.625 292.69 616.63C292.716 616.631 292.742 616.631 292.768 616.63H317.841C318.47 616.62 319.07 616.363 319.511 615.915C319.952 615.466 320.2 614.862 320.2 614.233C320.2 613.603 319.952 612.999 319.511 612.55C319.07 612.102 318.47 611.845 317.841 611.835H292.768Z" fill="#E6E6E6"/>
<path d="M256.75 596.25C256.841 596.341 256.949 596.413 257.068 596.462C257.187 596.512 257.314 596.537 257.443 596.537C257.571 596.537 257.699 596.512 257.817 596.462C257.936 596.413 258.044 596.341 258.135 596.25L262.338 592.045V602.415C262.338 602.675 262.441 602.924 262.625 603.107C262.808 603.291 263.057 603.394 263.317 603.394C263.577 603.394 263.826 603.291 264.009 603.107C264.193 602.924 264.296 602.675 264.296 602.415V592.045L268.499 596.25C268.59 596.341 268.698 596.413 268.817 596.462C268.936 596.512 269.063 596.537 269.192 596.537C269.32 596.537 269.447 596.512 269.566 596.462C269.685 596.413 269.793 596.341 269.884 596.25C269.975 596.159 270.047 596.051 270.096 595.932C270.145 595.813 270.171 595.686 270.171 595.557C270.171 595.429 270.145 595.301 270.096 595.183C270.047 595.064 269.975 594.956 269.884 594.865L264.009 588.987C263.826 588.803 263.577 588.7 263.317 588.7C263.057 588.7 262.808 588.803 262.625 588.987L256.75 594.865C256.567 595.048 256.464 595.298 256.464 595.557C256.464 595.817 256.567 596.066 256.75 596.25V596.25Z" fill="white"/>
<path d="M132.692 657.963C132.243 657.964 131.813 658.142 131.496 658.46C131.179 658.777 131 659.207 131 659.656V717.401C131 717.85 131.179 718.28 131.496 718.598C131.813 718.915 132.243 719.094 132.692 719.094H329.48C329.928 719.094 330.358 718.915 330.675 718.598C330.993 718.28 331.171 717.85 331.172 717.401V659.656C331.171 659.207 330.993 658.777 330.675 658.46C330.358 658.142 329.928 657.964 329.48 657.963H132.692Z" fill="#E6E6E6"/>
<path d="M135.24 714.852H326.932V662.205H135.24V714.852Z" fill="white"/>
<path d="M302.735 703.93C301.991 703.93 301.278 704.226 300.753 704.752C300.227 705.278 299.932 705.991 299.932 706.735C299.932 707.479 300.227 708.192 300.753 708.718C301.278 709.244 301.991 709.539 302.735 709.539H313.946C314.689 709.539 315.402 709.244 315.928 708.718C316.454 708.192 316.749 707.479 316.749 706.735C316.749 705.991 316.454 705.278 315.928 704.752C315.402 704.226 314.689 703.93 313.946 703.93H302.735Z" fill="black"/>
<path d="M316.749 698.49H187.325V699.229H316.749V698.49Z" fill="#E6E6E6"/>
<path d="M160.272 704.863C169.288 704.863 176.598 697.55 176.598 688.529C176.598 679.507 169.288 672.194 160.272 672.194C151.256 672.194 143.947 679.507 143.947 688.529C143.947 697.55 151.256 704.863 160.272 704.863Z" fill="black"/>
<path d="M187.53 694.37L187.121 693.756L200.57 684.785L209.792 689.214L223.058 680.732L249.446 691.994L270.459 681.665L290.862 689.946L316.502 679.64L316.991 680.192L291.012 690.802L270.488 682.476L249.467 692.808L223.127 681.565L209.844 690.057L200.63 685.632L187.53 694.37Z" fill="#3F3D56"/>
<path d="M189.722 704.316C189.094 704.326 188.494 704.583 188.053 705.032C187.611 705.48 187.364 706.085 187.364 706.714C187.364 707.343 187.611 707.947 188.053 708.396C188.494 708.845 189.094 709.102 189.722 709.112H214.796C215.431 709.122 216.045 708.88 216.502 708.437C216.959 707.995 217.221 707.389 217.231 706.753C217.242 706.117 216.999 705.503 216.557 705.046C216.115 704.589 215.51 704.326 214.874 704.316C214.848 704.316 214.822 704.316 214.796 704.316H189.722Z" fill="#E6E6E6"/>
<path d="M153.706 688.732C153.796 688.823 153.904 688.895 154.023 688.944C154.142 688.993 154.269 689.018 154.398 689.018C154.526 689.018 154.654 688.993 154.773 688.944C154.891 688.895 154.999 688.823 155.09 688.732L159.293 684.526V694.896C159.293 695.025 159.318 695.153 159.367 695.272C159.416 695.391 159.488 695.499 159.579 695.591C159.67 695.682 159.778 695.754 159.897 695.804C160.016 695.853 160.144 695.878 160.272 695.878C160.401 695.878 160.529 695.853 160.648 695.804C160.766 695.754 160.875 695.682 160.965 695.591C161.056 695.499 161.129 695.391 161.178 695.272C161.227 695.153 161.252 695.025 161.251 694.896V684.526L165.454 688.732C165.545 688.823 165.653 688.895 165.772 688.945C165.891 688.994 166.018 689.02 166.147 689.02C166.276 689.02 166.403 688.995 166.522 688.945C166.641 688.896 166.749 688.824 166.84 688.733C166.931 688.642 167.004 688.534 167.053 688.415C167.102 688.296 167.127 688.168 167.127 688.039C167.127 687.91 167.101 687.783 167.052 687.664C167.003 687.545 166.93 687.437 166.839 687.346L160.965 681.468C160.781 681.285 160.532 681.181 160.272 681.181C160.013 681.181 159.764 681.285 159.58 681.468L153.706 687.346C153.522 687.53 153.419 687.779 153.419 688.039C153.419 688.299 153.522 688.548 153.706 688.732V688.732Z" fill="white"/>
</g>
</g>
<defs>
<clipPath id="clip0">
<rect width="703" height="1024" rx="20" fill="white"/>
</clipPath>
<clipPath id="clip1">
<rect width="458" height="440" fill="white" transform="translate(131 473)"/>
</clipPath>
<clipPath id="clip2">
<rect width="458" height="440" fill="white" transform="translate(131 473)"/>
</clipPath>
</defs>
</svg>
